<svg width="128" height="32" viewBox="0 0 128 32" fill="none" xmlns="http://www.w3.org/2000/svg">
<path d="M58.7955 12.875C57.9886 12.875 57.5682 12.4773 57.2727 11.7045C56.5455 9.85227 54.8182 8.76136 52.5682 8.76136C48.9659 8.76136 46.6023 11.5227 46.6023 16.3636C46.6023 21.3409 49 23.9659 52.5341 23.9659C54.7273 23.9659 56.4545 22.9659 57.2273 21.1932C57.5568 20.4318 57.9659 20.0455 58.7727 20.0455L61.0341 20.0568C61.9886 20.0682 62.5114 20.6364 62.25 21.5455C61.1477 25.2273 57.7273 28.3182 52.4545 28.3182C46.2273 28.3182 41.6136 23.9545 41.6136 16.3636C41.6136 8.75 46.3068 4.40909 52.4545 4.40909C57.3182 4.40909 61.1136 6.93182 62.2727 11.3864C62.5227 12.3182 61.9886 12.875 61.0455 12.875H58.7955ZM70.0352 26.6364C70.0352 27.5227 69.558 28 68.6716 28H66.558C65.6716 28 65.1943 27.5227 65.1943 26.6364V6.09091C65.1943 5.20454 65.6716 4.72727 66.558 4.72727H68.6716C69.558 4.72727 70.0352 5.20454 70.0352 6.09091V26.6364ZM78.0903 28.3295C74.7608 28.3295 72.2949 26.5795 72.2949 23.125C72.2949 19.2273 75.3972 18.0682 78.8517 17.75C81.8858 17.4545 83.079 17.3068 83.079 16.1818V16.1136C83.079 14.6818 82.1358 13.8523 80.4881 13.8523C79.2949 13.8523 78.4426 14.25 77.9085 14.875C77.4085 15.4886 77.0222 15.8409 76.2494 15.7727L74.4653 15.625C73.4994 15.5455 72.9881 14.9091 73.4085 14.0341C74.5222 11.7159 77.0108 10.3182 80.5108 10.3182C84.3972 10.3182 87.9199 12.0682 87.9199 16.2273V26.6364C87.9199 27.5227 87.4426 28 86.5562 28H84.6926C83.8062 28 83.329 27.5682 83.329 26.7841V25.5795H83.1926C82.3403 27.2045 80.6699 28.3295 78.0903 28.3295ZM76.9199 22.9659C76.9199 24.2955 77.9881 24.9886 79.4767 24.9886C81.6017 24.9886 83.1131 23.5909 83.1131 21.7614V19.9091C82.5335 20.2955 80.8062 20.5455 79.7494 20.6932C78.0449 20.9318 76.9199 21.6023 76.9199 22.9659ZM97.3074 28.2841C93.3301 28.2841 90.2278 25.1364 90.2278 19.2955C90.2278 13.2955 93.4665 10.3182 97.296 10.3182C100.216 10.3182 101.614 12.0568 102.262 13.4773H102.41V6.09091C102.41 5.20454 102.887 4.72727 103.773 4.72727H105.876C106.762 4.72727 107.239 5.20454 107.239 6.09091V26.6364C107.239 27.5227 106.762 28 105.876 28H103.83C102.944 28 102.466 27.5227 102.466 26.6364V25.2045H102.262C101.591 26.6591 100.126 28.2841 97.3074 28.2841ZM95.171 19.2727C95.171 22.3182 96.4665 24.4318 98.8415 24.4318C101.171 24.4318 102.512 22.3864 102.512 19.2727C102.512 16.1591 101.194 14.1705 98.8415 14.1705C96.4437 14.1705 95.171 16.25 95.171 19.2727ZM118.374 28.3409C112.999 28.3409 109.715 24.8864 109.715 19.3523C109.715 13.9659 113.044 10.3182 118.181 10.3182C122.794 10.3182 126.385 13.25 126.385 19.1818C126.385 20.0455 125.908 20.5114 125.022 20.5114H114.499V20.5227C114.499 23.125 116.033 24.7273 118.453 24.7273C119.624 24.7273 120.601 24.3636 121.238 23.6477C121.749 23.0568 122.158 22.7273 122.919 22.7727L124.715 22.8977C125.681 22.9659 126.215 23.4659 125.908 24.1932C124.828 26.7386 122.135 28.3409 118.374 28.3409ZM114.499 17.5114H121.828C121.817 15.4318 120.363 13.9318 118.26 13.9318C116.113 13.9318 114.601 15.5227 114.499 17.5114Z" fill="black"/>
<g clip-path="url(#clip0_10_61)">
<path d="M0.178249 18.3963C1.33466 26.0962 7.97787 32 16 32C24.0221 32 30.6653 26.0962 31.8217 18.3963C31.9156 17.7713 31.9626 17.4587 31.7651 17.2294C31.5676 17 31.2335 17 30.5653 17L1.43464 17C0.76648 17 0.4324 17 0.234916 17.2294C0.0374316 17.4587 0.0843697 17.7713 0.178249 18.3963Z" fill="#4DBBFF"/>
<path d="M29.1745 15L30.5653 15C31.2335 15 31.5676 15 31.7651 14.7706C31.9626 14.5413 31.9156 14.2287 31.8217 13.6037C30.6653 5.90385 24.0221 6.80496e-07 16 0C7.97787 -6.80496e-07 1.33466 5.90385 0.178249 13.6037C0.08437 14.2287 0.0374303 14.5413 0.234915 14.7706C0.432399 15 0.766482 15 1.43465 15H2.82548C3.38728 15 3.66818 15 3.8516 14.8475C4.03501 14.695 4.0907 14.3951 4.20208 13.7953C5.23724 8.22092 10.1257 4 16 4C21.8743 4 26.7628 8.22093 27.7979 13.7953C27.9093 14.3951 27.965 14.695 28.1484 14.8475C28.3318 15 28.6127 15 29.1745 15Z" fill="#FF3A01"/>
<path d="M23.034 15H24.4931C25.1891 15 25.5371 15 25.7353 14.7461C25.9334 14.4923 25.8561 14.1832 25.7014 13.565C24.6141 9.21897 20.683 6 16 6C11.317 6 7.3859 9.21897 6.29855 13.565C6.14389 14.1832 6.06655 14.4922 6.26474 14.7461C6.46292 15 6.81092 15 7.50692 15L8.96596 15C9.46797 15 9.71897 15 9.88902 14.8815C10.0591 14.763 10.1626 14.4827 10.3696 13.9219C11.2149 11.6324 13.4168 10 16 10C18.5832 10 20.7851 11.6324 21.6304 13.9219C21.8374 14.4827 21.9409 14.763 22.111 14.8815C22.281 15 22.532 15 23.034 15Z" fill="#FFC455"/>
<path d="M12.8852 13.4902C13.6185 12.5813 14.7413 12 16 12C17.2587 12 18.3815 12.5813 19.1148 13.4902C19.5231 13.9963 19.7273 14.2493 19.5479 14.6247C19.3684 15 18.9694 15 18.1712 15L13.8288 15C13.0306 15 12.6316 15 12.4521 14.6247C12.2727 14.2493 12.4769 13.9963 12.8852 13.4902Z" fill="#00BF62"/>
</g>
<defs>
<clipPath id="clip0_10_61">
<rect width="32" height="32" fill="white"/>
</clipPath>
</defs>
</svg>
